<?xml version="1.0" encoding="UTF-8"?>
<svg version="1.1" xmlns="http://www.w3.org/2000/svg" width="500" height="500">
<path d="M0 0 C-0.59565054 3.20249763 -1.59307385 4.96926551 -3.6875 7.4375 C-11.83673454 17.96277642 -15.32368571 29.9904784 -15.25537109 43.10888672 C-15.25899155 43.97035309 -15.262612 44.83181946 -15.26634216 45.71939087 C-15.27318926 47.57391178 -15.27575048 49.42845263 -15.27439499 51.28298569 C-15.27342176 54.22729632 -15.28646553 57.1712498 -15.30337524 60.11550903 C-15.34940776 68.4811124 -15.3742422 76.84667647 -15.38085938 85.21240234 C-15.38589625 90.34524183 -15.41025159 95.47770483 -15.44618607 100.61041641 C-15.45592916 102.55506242 -15.45834628 104.49976057 -15.45301437 106.44442368 C-15.41882883 119.5235356 -16.24438142 129.9214897 -23.625 141.1875 C-24.21539062 142.10917969 -24.80578125 143.03085937 -25.4140625 143.98046875 C-25.93742188 144.64691406 -26.46078125 145.31335938 -27 146 C-27.66 146 -28.32 146 -29 146 C-29 146.66 -29 147.32 -29 148 C-40.29055522 157.75311791 -52.40384965 160.70046377 -67 160 C-74.76096178 159.21489441 -81.20965575 155.65368777 -88 152 C-88 151.34 -88 150.68 -88 150 C-88.86044922 149.61521484 -88.86044922 149.61521484 -89.73828125 149.22265625 C-102.851042 142.13406538 -109.02986607 125.35562777 -113.82421875 112.109375 C-115.06755236 108.82135656 -116.49848121 105.67789799 -118 102.5 C-120.54477825 97.09724003 -122.73355865 91.62429201 -124.83203125 86.03515625 C-126.40306673 81.95256573 -128.16404416 77.96935704 -130 74 C-132.42267086 73.94832473 -132.42267086 73.94832473 -135 75 C-138.71668728 81.26591824 -138.39349604 87.38353382 -138.3359375 94.51171875 C-138.34845388 96.98633073 -138.36149117 99.46094012 -138.375 101.93554688 C-138.37892002 105.80828133 -138.37502555 109.6807572 -138.36035156 113.5534668 C-138.35172346 117.31076751 -138.37356455 121.06701094 -138.3984375 124.82421875 C-138.38509369 125.96525558 -138.37174988 127.10629242 -138.35800171 128.28190613 C-138.45851872 139.35956188 -142.09354031 149.98950795 -150 158 C-164.92569821 170.56071081 -183.94944809 174.31595864 -203 175 C-203 174.01 -203 173.02 -203 172 C-202.34 172 -201.68 172 -201 172 C-200.5978125 171.16275391 -200.5978125 171.16275391 -200.1875 170.30859375 C-198.45386159 166.93826381 -196.42966277 163.75747952 -194.4375 160.53515625 C-189.91874212 152.56593379 -188.69896627 144.10089865 -188.72875977 135.05883789 C-188.72353302 134.21527237 -188.71830627 133.37170685 -188.71292114 132.50257874 C-188.70275143 130.68735149 -188.69691314 128.87209566 -188.69503975 127.0568409 C-188.6913462 124.1758148 -188.6745391 121.29512384 -188.65428162 118.41416931 C-188.59915053 110.2287318 -188.56821518 102.04324655 -188.54370117 93.85766602 C-188.52775993 88.83510274 -188.49747774 83.81278028 -188.45893669 78.79034233 C-188.44735029 76.88673916 -188.4413569 74.98309285 -188.44125557 73.07945442 C-188.43963336 50.72046688 -188.43963336 50.72046688 -182 40.625 C-181.505 39.83351562 -181.01 39.04203125 -180.5 38.2265625 C-177.5404157 33.83342956 -177.5404157 33.83342956 -176 32 C-175.34 32 -174.68 32 -174 32 C-174 31.34 -174 30.68 -174 30 C-173.34 30 -172.68 30 -172 30 C-172 29.34 -172 28.68 -172 28 C-169 26 -169 26 -166 26 C-166 25.34 -166 24.68 -166 24 C-153.8716084 17.83099094 -142.06339697 16.72012803 -128.875 20.1875 C-123.52227644 21.94277623 -118.48122459 24.57710717 -114 28 C-114 28.66 -114 29.32 -114 30 C-113.11054688 30.38671875 -113.11054688 30.38671875 -112.203125 30.78125 C-109.82339035 32.09769895 -108.49021208 33.42580782 -106.75 35.5 C-105.96882813 36.41265625 -105.96882813 36.41265625 -105.171875 37.34375 C-104 39 -104 39 -104 41 C-103.34 41 -102.68 41 -102 41 C-97.20339346 50.84835172 -92.80040791 60.7675254 -88.79541016 70.96459961 C-86.75738094 76.14438043 -84.59300904 81.22371467 -82.22265625 86.26171875 C-80.33578059 90.48759681 -78.68414818 94.80893033 -77.05419922 99.13989258 C-75.85393932 102.75163512 -75.85393932 102.75163512 -73 105 C-70.91666667 104.83333333 -70.91666667 104.83333333 -69 104 C-67.96966298 100.90898895 -67.86353617 98.75033143 -67.84228516 95.50976562 C-67.83202301 94.38429321 -67.82176086 93.2588208 -67.81118774 92.09924316 C-67.80388641 90.88055542 -67.79658508 89.66186768 -67.7890625 88.40625 C-67.76097732 85.82291051 -67.73231277 83.23957727 -67.703125 80.65625 C-67.66085746 76.58597232 -67.62406986 72.51573164 -67.59863281 68.4453125 C-67.57341878 64.51541302 -67.52497164 60.5859334 -67.4765625 56.65625 C-67.47330963 55.4537561 -67.47005676 54.25126221 -67.46670532 53.0123291 C-67.2660065 39.07199614 -63.61823494 27.28864489 -54.0703125 16.9140625 C-39.95247109 3.86171856 -18.7050888 -0.33702863 0 0 Z " fill="#6CA2C1" transform="translate(354,162)"/>
<path d="M0 0 C-0.59565054 3.20249763 -1.59307385 4.96926551 -3.6875 7.4375 C-11.83673454 17.96277642 -15.32368571 29.9904784 -15.25537109 43.10888672 C-15.26080177 44.40108627 -15.26080177 44.40108627 -15.26634216 45.71939087 C-15.27318926 47.57391178 -15.27575048 49.42845263 -15.27439499 51.28298569 C-15.27342176 54.22729632 -15.28646553 57.1712498 -15.30337524 60.11550903 C-15.34940776 68.4811124 -15.3742422 76.84667647 -15.38085938 85.21240234 C-15.38589625 90.34524183 -15.41025159 95.47770483 -15.44618607 100.61041641 C-15.45592916 102.55506242 -15.45834628 104.49976057 -15.45301437 106.44442368 C-15.41876461 119.54810487 -16.18408796 129.98413024 -23.75 141.1875 C-24.36359375 142.10917969 -24.9771875 143.03085937 -25.609375 143.98046875 C-26.06828125 144.64691406 -26.5271875 145.31335938 -27 146 C-27.66 145.67 -28.32 145.34 -29 145 C-27.515 142.525 -27.515 142.525 -26 140 C-27.32 140 -28.64 140 -30 140 C-30.33 139.01 -30.66 138.02 -31 137 C-31.66 136.67 -32.32 136.34 -33 136 C-33 136.66 -33 137.32 -33 138 C-34.0725 138.12375 -35.145 138.2475 -36.25 138.375 C-39.43703072 138.90617179 -41.22426742 139.56073125 -44 141 C-44.66 140.67 -45.32 140.34 -46 140 C-46 138.68 -46 137.36 -46 136 C-46.61875 135.9175 -47.2375 135.835 -47.875 135.75 C-50 135 -50 135 -51.25 133.0625 C-52 131 -52 131 -52 129 C-52.99 129.33 -53.98 129.66 -55 130 C-55.99 129.34 -56.98 128.68 -58 128 C-57.8046875 126.1171875 -57.8046875 126.1171875 -57 124 C-54.8203125 122.9453125 -54.8203125 122.9453125 -52.125 122.125 C-47.97606791 120.62690141 -47.97606791 120.62690141 -45.0625 117.375 C-44.711875 116.26125 -44.36125 115.1475 -44 114 C-43.75431778 113.33567963 -43.50863556 112.67135925 -43.25550842 111.98690796 C-40.68546325 104.53927183 -40.55929681 97.48779221 -40.55859375 89.6640625 C-40.54678529 88.2946128 -40.53341278 86.92517579 -40.51856995 85.55575562 C-40.4826457 81.97331704 -40.46226864 78.39099092 -40.44702148 74.80841064 C-40.42205968 69.08431733 -40.38182784 63.36047263 -40.32512093 57.63660812 C-40.30907313 55.66059054 -40.3054004 53.68448455 -40.30210876 51.70840454 C-40.23775785 43.95009543 -39.53705128 36.60747206 -38 29 C-38.99 28.34 -39.98 27.68 -41 27 C-39.90078577 24.20200015 -38.95533848 22.96449982 -36.5625 21.0625 C-33.86558502 18.89181233 -32.50789407 17.09515099 -31 14 C-31 13.01 -31 12.02 -31 11 C-31.66 11.66 -32.32 12.32 -33 13 C-33 11.68 -33 10.36 -33 9 C-40.64729124 12.55361159 -40.64729124 12.55361159 -47 18 C-47.99 18 -48.98 18 -50 18 C-49.67 18.99 -49.34 19.98 -49 21 C-49.5053125 21.39832031 -50.010625 21.79664063 -50.53125 22.20703125 C-51.1809375 22.73683594 -51.830625 23.26664063 -52.5 23.8125 C-53.1496875 24.33457031 -53.799375 24.85664063 -54.46875 25.39453125 C-56.34509128 26.99204833 -56.34509128 26.99204833 -56 30 C-58.40305573 32.83217282 -60.67593897 34.42875266 -64 36 C-64.02505615 37.15709473 -64.0501123 38.31418945 -64.07592773 39.50634766 C-65.00043013 81.8376028 -65.00043013 81.8376028 -66 100 C-66.33 100 -66.66 100 -67 100 C-67.06995178 92.75816639 -67.12303797 85.51640733 -67.15543652 78.27430248 C-67.17099747 74.91036612 -67.19205684 71.54666332 -67.22631836 68.18286133 C-67.26296983 64.30283598 -67.27978808 60.42313647 -67.29296875 56.54296875 C-67.30845261 55.35293747 -67.32393646 54.16290619 -67.33988953 52.93681335 C-67.3426556 39.01628655 -63.58749051 27.25523861 -54.0703125 16.9140625 C-39.95247109 3.86171856 -18.7050888 -0.33702863 0 0 Z " fill="#7CA9C3" transform="translate(354,162)"/>
<path d="M0 0 C1 3 1 3 0 6 C0.66 6 1.32 6 2 6 C2 6.99 2 7.98 2 9 C2.825 8.34 3.65 7.68 4.5 7 C8.91433931 4.07783172 13.29643725 4.45559658 18.2890625 5.4609375 C20.20451335 5.92795555 22.10429565 6.45837019 24 7 C25.7578125 12.95703125 25.7578125 12.95703125 26 15 C25.34 15.99 24.68 16.98 24 18 C23.40861188 19.9118032 23.40861188 19.9118032 23 21.9375 C22.528292 24.12336116 22.10623998 25.81788471 20.97528076 27.75656128 C19.72919774 30.62292654 19.78495397 32.80760342 19.83300781 35.93017578 C19.85358246 37.7219072 19.85358246 37.7219072 19.87457275 39.54983521 C19.900495 40.83534271 19.92641724 42.12085022 19.953125 43.4453125 C19.9742314 44.78000948 19.99470979 46.11471653 20.0145874 47.44943237 C20.05853818 50.24200468 20.10988961 53.0343167 20.16650391 55.82666016 C20.23856543 59.40894358 20.29249127 62.99122911 20.34096146 66.57390022 C20.38956655 69.98955685 20.45321672 73.4048798 20.515625 76.8203125 C20.53345032 78.10986847 20.55127563 79.39942444 20.56964111 80.72805786 C20.59596619 81.91624115 20.62229126 83.10442444 20.64941406 84.32861328 C20.66877014 85.37800079 20.68812622 86.42738831 20.70806885 87.50857544 C20.75923522 90.17257533 20.75923522 90.17257533 23 92 C22.690625 92.5775 22.38125 93.155 22.0625 93.75 C20.7119988 96.6098849 20.09924717 99.24572148 19.6875 102.375 C19 105 19 105 16.9375 107.9375 C14.78531657 111.33933832 14.62486779 113.06111176 15 117 C16.65 117.33 18.3 117.66 20 118 C20 117.34 20 116.68 20 116 C20.66 115.34 21.32 114.68 22 114 C22.33 113.34 22.66 112.68 23 112 C24.3921875 112.0928125 24.3921875 112.0928125 25.8125 112.1875 C28.91967742 112.26301639 28.91967742 112.26301639 30.875 110.8125 C32.34781139 108.43963721 32.22223194 106.74086056 32 104 C32.99 104.33 33.98 104.66 35 105 C35.99 104.67 36.98 104.34 38 104 C38.73323796 101.98491642 38.73323796 101.98491642 39 100 C39.99 100 40.98 100 42 100 C39.5168001 109.48130871 33.00935831 114.07649836 25 119 C12.2983987 126.40415406 -3.49950099 128.47933576 -18 129 C-18 128.01 -18 127.02 -18 126 C-17.34 126 -16.68 126 -16 126 C-15.5978125 125.16275391 -15.5978125 125.16275391 -15.1875 124.30859375 C-13.45386159 120.93826381 -11.42966277 117.75747952 -9.4375 114.53515625 C-4.91874212 106.56593379 -3.69896627 98.10089865 -3.72875977 89.05883789 C-3.72353302 88.21527237 -3.71830627 87.37170685 -3.71292114 86.50257874 C-3.70275143 84.68735149 -3.69691314 82.87209566 -3.69503975 81.0568409 C-3.6913462 78.1758148 -3.6745391 75.29512384 -3.65428162 72.41416931 C-3.59915053 64.2287318 -3.56821518 56.04324655 -3.54370117 47.85766602 C-3.52775993 42.83510274 -3.49747774 37.81278028 -3.45893669 32.79034233 C-3.44735029 30.88673916 -3.4413569 28.98309285 -3.44125557 27.07945442 C-3.43987029 7.98605974 -3.43987029 7.98605974 0 0 Z " fill="#8BA2C9" transform="translate(169,208)"/>
<path d="M0 0 C2.90357746 1.76250366 5.43025455 3.78470219 8 6 C9.25683594 7.02480469 9.25683594 7.02480469 10.5390625 8.0703125 C16.03965086 12.72715279 20.28426828 17.23925735 23 24 C23 24.66 23 25.32 23 26 C22.01 26 21.02 26 20 26 C15.95132904 33.51896035 15.7067708 40.16274922 15.69140625 48.5546875 C15.6662482 51.0507836 15.64085015 53.5468773 15.61523438 56.04296875 C15.58650052 59.96207057 15.56247064 63.88113062 15.54370117 67.80029297 C15.521999 71.59364188 15.48255837 75.38650693 15.44140625 79.1796875 C15.44129044 80.34450653 15.44117462 81.50932556 15.4410553 82.70944214 C15.3635026 89.11185817 15.02083853 94.28031735 12 100 C10.66744281 100.33642269 9.33413862 100.66990449 8 101 C7.505 102.485 7.505 102.485 7 104 C5 105.125 5 105.125 3 106 C1.76012807 107.08183866 1.76012807 107.08183866 1.25 109.5 C0 112 0 112 -2.4375 112.875 C-5 113 -5 113 -8 112 C-8 113.32 -8 114.64 -8 116 C-8.99 116 -9.98 116 -11 116 C-11 116.66 -11 117.32 -11 118 C-12.98 118 -14.96 118 -17 118 C-17.45750914 113.51641045 -17.30007042 110.97839734 -14.5 107.5 C-11.65568375 103.96446723 -11.82906847 101.52968542 -12 97 C-10.5 94.5625 -10.5 94.5625 -9 93 C-9.495 92.505 -9.495 92.505 -10 92 C-10.33 92 -10.66 92 -11 92 C-11.20042779 83.87249796 -11.38411923 75.74486182 -11.54658794 67.61652088 C-11.62255584 63.8420047 -11.70423451 60.06779413 -11.79907227 56.29370117 C-11.89042288 52.64994544 -11.96663111 49.00615584 -12.03244972 45.36185265 C-12.06017314 43.97311321 -12.09330676 42.58447067 -12.13199425 41.19599342 C-12.18533931 39.24794705 -12.2174909 37.29935552 -12.2487793 35.35083008 C-12.27320602 34.2427449 -12.29763275 33.13465973 -12.32279968 31.99299622 C-11.9566652 28.59820007 -10.89122839 26.79996006 -9 24 C-8.51339084 21.8696975 -8.51339084 21.8696975 -8.4375 19.8125 C-8 16 -8 16 -6 14 C-6.32326553 10.40320934 -6.32326553 10.40320934 -7 7 C-9.54131835 6.72232626 -12.07909722 6.47739237 -14.625 6.25 C-15.33785156 6.16878906 -16.05070313 6.08757812 -16.78515625 6.00390625 C-22.23131069 5.55422377 -24.76050794 6.54956166 -29 10 C-29.66 9.67 -30.32 9.34 -31 9 C-30.34 8.01 -29.68 7.02 -29 6 C-29.66 6 -30.32 6 -31 6 C-31 3.25 -31 3.25 -30 0 C-21.53938075 -7.46525228 -9.11200712 -4.47240717 0 0 Z " fill="#5F6DA9" transform="translate(200,208)"/>
<path d="M0 0 C0.495 0.99 0.495 0.99 1 2 C1.66 1.67 2.32 1.34 3 1 C2.59862455 6.61925626 0.82025541 9.08656763 -3 13 C-3.66 13 -4.32 13 -5 13 C-5.33 13.66 -5.66 14.32 -6 15 C-6.66 15.99 -7.32 16.98 -8 18 C-6.68 18.66 -5.36 19.32 -4 20 C-4.21119225 21.04649719 -4.21119225 21.04649719 -4.426651 22.11413574 C-5.95065274 30.30448565 -6.29467204 38.21438558 -6.30859375 46.53125 C-6.3197336 47.89783777 -6.33213519 49.26441577 -6.34571838 50.63098145 C-6.40040552 56.36636778 -6.43173598 62.10181572 -6.45629883 67.83740234 C-6.47233147 71.37219489 -6.5026966 74.9066521 -6.54106331 78.44126892 C-6.55807205 80.40841328 -6.5587665 82.37567762 -6.5589447 84.34289551 C-6.77107101 103.77107101 -6.77107101 103.77107101 -12 109 C-12.66 109.99 -13.32 110.98 -14 112 C-16.3125 113.09765625 -16.3125 113.09765625 -19 114.0625 C-22.86489578 115.43675982 -22.86489578 115.43675982 -26 118 C-32.74215234 113.56398691 -37.68174623 108.95400863 -40 101 C-39.6171875 98.69921875 -39.6171875 98.69921875 -39 97 C-38.01 97 -37.02 97 -36 97 C-35.855625 96.195625 -35.71125 95.39125 -35.5625 94.5625 C-35 92 -35 92 -34 91 C-33.85234912 89.18685284 -33.77218636 87.36816877 -33.71875 85.54980469 C-33.68201172 84.38479431 -33.64527344 83.21978394 -33.60742188 82.01947021 C-33.57197266 80.74976379 -33.53652344 79.48005737 -33.5 78.171875 C-33.43795966 76.19129269 -33.37591473 74.21071052 -33.31359863 72.23013687 C-33.20504166 68.73687747 -33.10286319 65.24343088 -33 61.75 C-32.87734148 57.59961436 -32.75334598 53.44928685 -32.62304688 49.2991333 C-32.54223434 46.71164903 -32.46528907 44.12404052 -32.39257812 41.53631592 C-32.35583984 40.3586969 -32.31910156 39.18107788 -32.28125 37.96777344 C-32.23581055 36.41675934 -32.23581055 36.41675934 -32.18945312 34.83441162 C-31.72707373 27.91674514 -31.72707373 27.91674514 -29.5625 25.1875 C-28 24 -28 24 -26 24 C-25.814375 23.13375 -25.62875 22.2675 -25.4375 21.375 C-23.75479597 17.42430357 -21.84086719 15.89843835 -18.4609375 13.39453125 C-17.73777344 12.70423828 -17.73777344 12.70423828 -17 12 C-17 11.01 -17 10.02 -17 9 C-15.36935236 7.94228261 -13.69719127 6.94726954 -12 6 C-11.54625 5.505 -11.0925 5.01 -10.625 4.5 C-7.80892357 1.90054484 -3.86561711 0 0 0 Z " fill="#33979A" transform="translate(321,171)"/>
<path d="M0 0 C-0.59565054 3.20249763 -1.59307385 4.96926551 -3.6875 7.4375 C-11.87744459 18.01535615 -15.30318508 30.0646467 -15.28710938 43.23583984 C-15.29735893 44.54731491 -15.29735893 44.54731491 -15.30781555 45.88528442 C-15.32131059 47.76599981 -15.33042317 49.6467509 -15.33552551 51.52750778 C-15.34386854 54.50321777 -15.36441834 57.47862877 -15.38806152 60.45425415 C-15.4442432 67.83544576 -15.47976214 75.21670942 -15.51568604 82.59802246 C-15.54689977 88.85524958 -15.58603604 95.11232752 -15.63594055 101.36943436 C-15.65602214 104.30265529 -15.66432744 107.23576151 -15.67224121 110.16903687 C-15.68520766 111.95953801 -15.69872709 113.75003527 -15.71289062 115.54052734 C-15.71190872 116.35716858 -15.71092682 117.17380981 -15.70991516 118.01519775 C-15.75247632 121.86528587 -15.81398892 123.72098338 -18 127 C-17.89237878 114.34322911 -17.77972118 101.68651399 -17.66066074 89.02984524 C-17.60553202 83.15264657 -17.55212828 77.27544283 -17.50268555 71.39819336 C-17.45489353 65.72474511 -17.40254574 60.0513554 -17.34705925 54.37797737 C-17.3267028 52.21510339 -17.3079789 50.05221339 -17.29092598 47.88931084 C-17.26673295 44.85640566 -17.23669937 41.82360969 -17.20532227 38.79077148 C-17.1995668 37.89956604 -17.19381134 37.0083606 -17.18788147 36.09014893 C-17.1316269 31.29609602 -16.79772536 26.72915942 -16 22 C-15.34 22 -14.68 22 -14 22 C-14 19.36 -14 16.72 -14 14 C-16.19514873 13.0406843 -16.19514873 13.0406843 -19 13 C-21.05279996 14.60118397 -23.05651499 16.26776336 -25 18 C-25.99 18 -26.98 18 -28 18 C-28.1546875 18.804375 -28.1546875 18.804375 -28.3125 19.625 C-29.32578806 23.12544967 -30.5599622 26.87203305 -33.49609375 29.171875 C-35.88770247 32.07907728 -36.1091879 35.56909917 -36.6875 39.1875 C-36.81705078 39.93708984 -36.94660156 40.68667969 -37.08007812 41.45898438 C-37.39740538 43.30418359 -37.70013291 45.151883 -38 47 C-38.33 47 -38.66 47 -39 47 C-39.09945415 40.88909517 -39.0712828 35.02596573 -38 29 C-38.99 28.34 -39.98 27.68 -41 27 C-39.90078577 24.20200015 -38.95533848 22.96449982 -36.5625 21.0625 C-33.86558502 18.89181233 -32.50789407 17.09515099 -31 14 C-31 13.01 -31 12.02 -31 11 C-31.66 11.66 -32.32 12.32 -33 13 C-33 11.68 -33 10.36 -33 9 C-40.64729124 12.55361159 -40.64729124 12.55361159 -47 18 C-47.99 18 -48.98 18 -50 18 C-49.67 18.99 -49.34 19.98 -49 21 C-49.5053125 21.39832031 -50.010625 21.79664063 -50.53125 22.20703125 C-51.1809375 22.73683594 -51.830625 23.26664063 -52.5 23.8125 C-53.1496875 24.33457031 -53.799375 24.85664063 -54.46875 25.39453125 C-56.34509128 26.99204833 -56.34509128 26.99204833 -56 30 C-58.40305573 32.83217282 -60.67593897 34.42875266 -64 36 C-64.02505615 37.15709473 -64.0501123 38.31418945 -64.07592773 39.50634766 C-65.00043013 81.8376028 -65.00043013 81.8376028 -66 100 C-66.33 100 -66.66 100 -67 100 C-67.06995178 92.75816639 -67.12303797 85.51640733 -67.15543652 78.27430248 C-67.17099747 74.91036612 -67.19205684 71.54666332 -67.22631836 68.18286133 C-67.26296983 64.30283598 -67.27978808 60.42313647 -67.29296875 56.54296875 C-67.30845261 55.35293747 -67.32393646 54.16290619 -67.33988953 52.93681335 C-67.3426556 39.01628655 -63.58749051 27.25523861 -54.0703125 16.9140625 C-39.95247109 3.86171856 -18.7050888 -0.33702863 0 0 Z " fill="#CFEEEC" transform="translate(354,162)"/>
<path d="M0 0 C2.9036116 1.76252439 5.43605145 3.77726133 8 6 C8.88429687 6.7528125 9.76859375 7.505625 10.6796875 8.28125 C17.8441245 14.5323735 17.8441245 14.5323735 19 18 C18.34 18 17.68 18 17 18 C17 17.34 17 16.68 17 16 C16.01 15.67 15.02 15.34 14 15 C13.505 14.01 13.505 14.01 13 13 C12.01 13.66 11.02 14.32 10 15 C9.34 13.68 8.68 12.36 8 11 C6.02 11.33 4.04 11.66 2 12 C1.731875 12.886875 1.46375 13.77375 1.1875 14.6875 C0.06504018 17.81857214 -1.19447466 20.22226871 -3 23 C-3.66 24.0725 -4.32 25.145 -5 26.25 C-7 29 -7 29 -10 30 C-9.855625 29.175 -9.71125 28.35 -9.5625 27.5 C-9.14523081 24.90365837 -8.82931427 22.36096821 -8.5625 19.75 C-8 16 -8 16 -6 14 C-6.32326553 10.40320934 -6.32326553 10.40320934 -7 7 C-9.54131835 6.72232626 -12.07909722 6.47739237 -14.625 6.25 C-15.33785156 6.16878906 -16.05070313 6.08757812 -16.78515625 6.00390625 C-22.23131069 5.55422377 -24.76050794 6.54956166 -29 10 C-29.66 9.67 -30.32 9.34 -31 9 C-30.34 8.01 -29.68 7.02 -29 6 C-29.66 6 -30.32 6 -31 6 C-31 3.25 -31 3.25 -30 0 C-21.53938075 -7.46525228 -9.11200712 -4.47240717 0 0 Z " fill="#1B7E79" transform="translate(200,208)"/>
<path d="M0 0 C-2.19332143 2.27767995 -4.37987081 4.2972902 -6.875 6.25 C-13.91096298 12.09853346 -17.54454785 19.68245146 -21 28 C-22.65 27.01 -24.3 26.02 -26 25 C-24.90078577 22.20200015 -23.95533848 20.96449982 -21.5625 19.0625 C-18.86558502 16.89181233 -17.50789407 15.09515099 -16 12 C-16 11.01 -16 10.02 -16 9 C-16.66 9.66 -17.32 10.32 -18 11 C-18 9.68 -18 8.36 -18 7 C-25.64729124 10.55361159 -25.64729124 10.55361159 -32 16 C-32.99 16 -33.98 16 -35 16 C-34.67 16.99 -34.34 17.98 -34 19 C-34.5053125 19.39832031 -35.010625 19.79664063 -35.53125 20.20703125 C-36.1809375 20.73683594 -36.830625 21.26664063 -37.5 21.8125 C-38.1496875 22.33457031 -38.799375 22.85664063 -39.46875 23.39453125 C-41.34509128 24.99204833 -41.34509128 24.99204833 -41 28 C-43.40305573 30.83217282 -45.67593897 32.42875266 -49 34 C-49.02505615 35.15709473 -49.0501123 36.31418945 -49.07592773 37.50634766 C-50.00043013 79.8376028 -50.00043013 79.8376028 -51 98 C-51.33 98 -51.66 98 -52 98 C-52.06995178 90.75816639 -52.12303797 83.51640733 -52.15543652 76.27430248 C-52.17099747 72.91036612 -52.19205684 69.54666332 -52.22631836 66.18286133 C-52.26296983 62.30283598 -52.27978808 58.42313647 -52.29296875 54.54296875 C-52.30845261 53.35293747 -52.32393646 52.16290619 -52.33988953 50.93681335 C-52.3426556 37.01628655 -48.58749051 25.25523861 -39.0703125 14.9140625 C-32.12891467 8.49654375 -23.96153141 4.71437557 -15 2 C-13.89978516 1.66162109 -13.89978516 1.66162109 -12.77734375 1.31640625 C-8.38119959 0.08819642 -4.5118642 -0.18799434 0 0 Z " fill="#8CDCCF" transform="translate(339,164)"/>
<path d="M0 0 C0.33 0 0.66 0 1 0 C1.01030746 0.99336365 1.02061493 1.98672729 1.03123474 3.01019287 C1.12896105 12.36847553 1.23169447 21.72669159 1.33933926 31.08486557 C1.3945202 35.89607213 1.44793252 40.70728483 1.49731445 45.51855469 C1.54502918 50.16106689 1.5973746 54.80350584 1.65294075 59.44593048 C1.67333208 61.21773709 1.69205046 62.98956377 1.70907402 64.76140594 C1.73318936 67.24172723 1.76323414 69.72191074 1.79467773 72.20214844 C1.80331093 73.30266541 1.80331093 73.30266541 1.81211853 74.42541504 C1.86057587 77.78482472 2.14407596 80.76115102 3 84 C2.62884868 86.34877853 2.16005691 88.68305632 1.625 91 C1.34914062 92.216875 1.07328125 93.43375 0.7890625 94.6875 C0.20741858 97.12925268 -0.37979647 99.5678293 -1 102 C-0.34 102.33 0.32 102.66 1 103 C-0.875 107.875 -0.875 107.875 -2 109 C-1.34 109.99 -0.68 110.98 0 112 C-0.495 112.99 -0.495 112.99 -1 114 C-0.34 114 0.32 114 1 114 C1.33 112.68 1.66 111.36 2 110 C2.99 110 3.98 110 5 110 C5.0825 109.21625 5.165 108.4325 5.25 107.625 C5.62125 106.325625 5.62125 106.325625 6 105 C6.928125 104.5978125 6.928125 104.5978125 7.875 104.1875 C10.52801456 102.70493304 10.57798229 101.82177946 11.5 99 C12.77083333 95.15277778 12.77083333 95.15277778 15.0625 93.625 C15.701875 93.41875 16.34125 93.2125 17 93 C17.66 92.34 18.32 91.68 19 91 C18.20780339 99.45009716 11.51058671 106.0675502 6 112 C4.9171875 113.175625 4.9171875 113.175625 3.8125 114.375 C-0.09462677 117.87794124 -3.57000885 118.31420053 -8.75 118.625 C-10.50570312 118.73714844 -10.50570312 118.73714844 -12.296875 118.8515625 C-13.18890625 118.90054688 -14.0809375 118.94953125 -15 119 C-15 118.01 -15 117.02 -15 116 C-14.34 116 -13.68 116 -13 116 C-12.5978125 115.16275391 -12.5978125 115.16275391 -12.1875 114.30859375 C-10.45386159 110.93826381 -8.42966277 107.75747952 -6.4375 104.53515625 C-1.89151359 96.51791391 -0.70599882 87.99256661 -0.68115234 78.90014648 C-0.67110672 78.04051804 -0.6610611 77.18088959 -0.65071106 76.29521179 C-0.62011122 73.48717852 -0.60290913 70.67923954 -0.5859375 67.87109375 C-0.56720714 65.91096702 -0.54763236 63.95084819 -0.5272522 61.99073792 C-0.47612227 56.85672688 -0.43639456 51.72268976 -0.39910889 46.58856201 C-0.35894871 41.33957569 -0.3079114 36.09069608 -0.2578125 30.84179688 C-0.16128007 20.5612731 -0.07680328 10.28068879 0 0 Z " fill="#EAE6F8" transform="translate(166,218)"/>
<path d="M0 0 C0.66 0 1.32 0 2 0 C3.68178661 2.52267991 4.90106742 4.81091823 6.125 7.5625 C6.47820312 8.34753906 6.83140625 9.13257813 7.1953125 9.94140625 C8 12 8 12 8 14 C10.97 14.495 10.97 14.495 14 15 C14 15.99 14 16.98 14 18 C14.185625 18.845625 14.37125 19.69125 14.5625 20.5625 C15 23 15 23 14 25 C14.66 25 15.32 25 16 25 C16 25.99 16 26.98 16 28 C16.94875 28.2475 17.8975 28.495 18.875 28.75 C22 30 22 30 23.25 32.0625 C23.4975 32.701875 23.745 33.34125 24 34 C24.66 34.33 25.32 34.66 26 35 C26 35.66 26 36.32 26 37 C27.98 37.33 29.96 37.66 32 38 C32 38.99 32 39.98 32 41 C32.763125 40.938125 33.52625 40.87625 34.3125 40.8125 C35.199375 40.874375 36.08625 40.93625 37 41 C37.5878125 41.72703125 37.5878125 41.72703125 38.1875 42.46875 C40.99931549 44.8442493 44.1594164 44.57410888 47.6875 44.6875 C48.37005859 44.72166016 49.05261719 44.75582031 49.75585938 44.79101562 C54.50532487 45.01077371 59.24615714 45.02667701 64 45 C64 44.34 64 43.68 64 43 C65.98 42.01 67.96 41.02 70 40 C69.67 39.34 69.34 38.68 69 38 C72.63 38 76.26 38 80 38 C77.00854811 41.35643765 74.28156025 43.01112646 70.125 44.6875 C69.11695313 45.10386719 68.10890625 45.52023437 67.0703125 45.94921875 C56.40516214 49.59925113 44.02716923 49.20268561 33.77734375 44.53125 C30.82430716 43.06682016 27.9025359 41.56177058 25 40 C25 39.34 25 38.68 25 38 C24.42636719 37.74347656 23.85273438 37.48695313 23.26171875 37.22265625 C11.58056826 30.90797559 4.65184507 16.17914433 0.9375 3.9375 C0.60464574 2.63001366 0.28203027 1.31938297 0 0 Z " fill="#C5A5E3" transform="translate(241,274)"/>
<path d="M0 0 C0.99 0 1.98 0 3 0 C0.52569069 9.4473628 -5.9832216 14.12616313 -14 19 C-23.23303257 23.87298941 -31.51954364 26.43668568 -42 26 C-39.74457779 23.65783078 -37.46102544 21.56002077 -34.9375 19.5 C-32.02413479 17.22137115 -32.02413479 17.22137115 -30.375 14.75 C-28.71579083 12.63827924 -27.61201983 12.3602786 -25 12 C-24.67 13.65 -24.34 15.3 -24 17 C-22.35 17.33 -20.7 17.66 -19 18 C-19 17.34 -19 16.68 -19 16 C-18.34 15.34 -17.68 14.68 -17 14 C-16.67 13.34 -16.34 12.68 -16 12 C-15.071875 12.061875 -14.14375 12.12375 -13.1875 12.1875 C-10.08032258 12.26301639 -10.08032258 12.26301639 -8.125 10.8125 C-6.65218861 8.43963721 -6.77776806 6.74086056 -7 4 C-6.01 4.33 -5.02 4.66 -4 5 C-3.01 4.67 -2.02 4.34 -1 4 C-0.26676204 1.98491642 -0.26676204 1.98491642 0 0 Z " fill="#D2ADE7" transform="translate(208,308)"/>
<path d="M0 0 C-2.54702616 1.27351308 -3.4282945 0.80191925 -6.125 0.0625 C-6.84945312 -0.13214844 -7.57390625 -0.32679688 -8.3203125 -0.52734375 C-8.87460938 -0.68332031 -9.42890625 -0.83929688 -10 -1 C-10.33 -0.34 -10.66 0.32 -11 1 C-11.66 1 -12.32 1 -13 1 C-13.66 -0.32 -14.32 -1.64 -15 -3 C-17.56314499 -3.08132187 -20.12368418 -3.14064175 -22.6875 -3.1875 C-23.40873047 -3.21263672 -24.12996094 -3.23777344 -24.87304688 -3.26367188 C-29.54990936 -3.32773848 -32.19620289 -2.67003748 -36 0 C-37.85625 0.5259375 -37.85625 0.5259375 -39.75 1.0625 C-40.8225 1.371875 -41.895 1.68125 -43 2 C-43.33 2.66 -43.66 3.32 -44 4 C-46.06640625 4.4140625 -46.06640625 4.4140625 -48.5625 4.625 C-49.80193359 4.73714844 -49.80193359 4.73714844 -51.06640625 4.8515625 C-52.02353516 4.92503906 -52.02353516 4.92503906 -53 5 C-53 4.34 -53 3.68 -53 3 C-50 1 -50 1 -47 1 C-47 0.34 -47 -0.32 -47 -1 C-32.45335224 -8.39903565 -13.97203719 -9.78042603 0 0 Z " fill="#8AEFD7" transform="translate(235,187)"/>
<path d="M0 0 C3.63 0 7.26 0 11 0 C8.00854811 3.35643765 5.28156025 5.01112646 1.125 6.6875 C0.11695313 7.10386719 -0.89109375 7.52023437 -1.9296875 7.94921875 C-12.74318582 11.65002161 -25.18375954 11.10916231 -35.5625 6.375 C-36.366875 5.92125 -37.17125 5.4675 -38 5 C-38 4.67 -38 4.34 -38 4 C-31.47839908 3.7491692 -31.47839908 3.7491692 -29.15234375 4.96875 C-22.31600241 8.24423841 -12.47757881 7.12673862 -5 7 C-5 6.34 -5 5.68 -5 5 C-3.02 4.01 -1.04 3.02 1 2 C0.505 1.01 0.505 1.01 0 0 Z " fill="#CFA8E7" transform="translate(310,312)"/>
<path d="M0 0 C-0.58528448 3.77852777 -2.26127804 5.72292438 -4.75 8.5625 C-8.96318458 13.64711664 -11.58253181 18.88659487 -14 25 C-15.65 24.01 -17.3 23.02 -19 22 C-17.90078577 19.20200015 -16.95533848 17.96449982 -14.5625 16.0625 C-11.86558502 13.89181233 -10.50789407 12.09515099 -9 9 C-9 8.01 -9 7.02 -9 6 C-9.66 6.66 -10.32 7.32 -11 8 C-11.33 6.35 -11.66 4.7 -12 3 C-11.34 3 -10.68 3 -10 3 C-10 2.34 -10 1.68 -10 1 C-6.52674819 -0.1577506 -3.63932552 -0.06866652 0 0 Z " fill="#41F2C0" transform="translate(332,167)"/>
<path d="M0 0 C-0.66 1.98 -1.32 3.96 -2 6 C-1.01 5.67 -0.02 5.34 1 5 C2.5 6.375 2.5 6.375 4 8 C4 8.66 4 9.32 4 10 C3.34773438 10.03738281 2.69546875 10.07476562 2.0234375 10.11328125 C-3.35856729 10.51812232 -7.24148361 11.26385307 -12 14 C-12.66 14 -13.32 14 -14 14 C-12.61934049 8.47736194 -9.86990756 4.12593198 -6 0 C-3 -1 -3 -1 0 0 Z " fill="#49BFAF" transform="translate(184,194)"/>
<path d="M0 0 C1 3 1 3 0 6 C0.66 6 1.32 6 2 6 C2 9.25343046 1.73938486 11.44817646 1.0078125 14.53515625 C-0.17315299 20.20983083 -0.22668418 25.66105619 -0.125 31.4375 C-0.11597656 32.41654297 -0.10695312 33.39558594 -0.09765625 34.40429688 C-0.08035449 36.20244359 -0.05891072 38.00055934 -0.03173828 39.79858398 C0.01482868 43.02854017 -0.04561423 46.22456496 -0.21875 49.44921875 C-0.26386719 50.29677734 -0.30898437 51.14433594 -0.35546875 52.01757812 C-0.40316406 52.89865234 -0.45085937 53.77972656 -0.5 54.6875 C-0.54769531 55.58017578 -0.59539062 56.47285156 -0.64453125 57.39257812 C-0.76231269 59.59509104 -0.88082937 61.79756189 -1 64 C-1.33 64 -1.66 64 -2 64 C-2.0463992 56.39374043 -2.08190771 48.78749558 -2.10362434 41.18112659 C-2.11404876 37.64893904 -2.1281833 34.11684852 -2.15087891 30.5847168 C-2.17682394 26.52131229 -2.18648387 22.45800926 -2.1953125 18.39453125 C-2.20563507 17.1297847 -2.21595764 15.86503815 -2.22659302 14.56196594 C-2.22674408 13.38111923 -2.22689514 12.20027252 -2.22705078 10.98364258 C-2.231492 9.94661697 -2.23593323 8.90959137 -2.24050903 7.84114075 C-1.98905329 4.87068616 -1.24812854 2.69174685 0 0 Z " fill="#5D96A6" transform="translate(169,208)"/>
<path d="M0 0 C0.99 0 1.98 0 3 0 C1.19757557 6.8819842 -2.93871173 12.24777393 -9 16 C-12.8125 16.25 -12.8125 16.25 -16 16 C-16.33 15.34 -16.66 14.68 -17 14 C-16.67 13.34 -16.34 12.68 -16 12 C-15.071875 12.061875 -14.14375 12.12375 -13.1875 12.1875 C-10.08032258 12.26301639 -10.08032258 12.26301639 -8.125 10.8125 C-6.65218861 8.43963721 -6.77776806 6.74086056 -7 4 C-6.01 4.33 -5.02 4.66 -4 5 C-3.01 4.67 -2.02 4.34 -1 4 C-0.26676204 1.98491642 -0.26676204 1.98491642 0 0 Z " fill="#B98EDE" transform="translate(208,308)"/>
<path d="M0 0 C-2.36292656 2.52588702 -3.66462511 3.88820837 -7 5 C-7 4.34 -7 3.68 -7 3 C-10.3 3.33 -13.6 3.66 -17 4 C-17 4.66 -17 5.32 -17 6 C-22.76759344 9.6047459 -28.03811996 12 -35 12 C-28.68153347 7.31965442 -22.50640899 4.31308603 -15 2 C-14.26394531 1.773125 -13.52789062 1.54625 -12.76953125 1.3125 C-8.37552794 0.08863834 -4.50889788 -0.18787075 0 0 Z " fill="#98F3DE" transform="translate(339,164)"/>
<path d="M0 0 C0.66 0 1.32 0 2 0 C3.68178661 2.52267991 4.90106742 4.81091823 6.125 7.5625 C6.47820312 8.34753906 6.83140625 9.13257813 7.1953125 9.94140625 C8 12 8 12 8 14 C10.97 14.495 10.97 14.495 14 15 C14 15.99 14 16.98 14 18 C14.31088368 19.67099977 14.64080332 21.33871537 15 23 C14.34 23.33 13.68 23.66 13 24 C9.05306434 20.40692754 6.55451091 16.83637267 4.25 12 C3.94707031 11.39671875 3.64414063 10.7934375 3.33203125 10.171875 C1.68835061 6.81146125 0.53348266 3.7063006 0 0 Z " fill="#B8B7DC" transform="translate(241,274)"/>
<path d="M0 0 C3.24621989 1.62310994 3.66818083 5.11348715 4.8125 8.375 C6.97229181 14.38173214 9.35261967 20.14758608 12.21484375 25.86328125 C13 28 13 28 12 31 C12 30.34 12 29.68 12 29 C9.69 29 7.38 29 5 29 C5.185625 28.2575 5.37125 27.515 5.5625 26.75 C6.00403201 23.97465597 5.84619148 22.62319359 5 20 C4.06064688 16.9001347 3.92389012 16.22832965 5 13 C4.34 13 3.68 13 3 13 C1.90154282 8.67940177 0.82187261 4.38332057 0 0 Z " fill="#9CCBD2" transform="translate(260,223)"/>
<path d="M0 0 C2.475 0.99 2.475 0.99 5 2 C5 2.66 5 3.32 5 4 C5.88945312 4.38671875 5.88945312 4.38671875 6.796875 4.78125 C9.17660965 6.09769895 10.50978792 7.42580782 12.25 9.5 C12.77078125 10.1084375 13.2915625 10.716875 13.828125 11.34375 C15 13 15 13 15 15 C15.66 15 16.32 15 17 15 C17.66 16.98 18.32 18.96 19 21 C15.83884224 19.63016497 15.0072908 19.0109362 13 16 C13 15.01 13 14.02 13 13 C10.69 12.67 8.38 12.34 6 12 C6 10.35 6 8.7 6 7 C5.34 7 4.68 7 4 7 C1.4132178 4.93057424 0.5590888 3.24271506 0 0 Z " fill="#5BD5BB" transform="translate(235,188)"/>
<path d="M0 0 C1 3 1 3 0.28515625 4.9453125 C-3.11239144 11.00228251 -7.21608933 15.97867441 -12 21 C-12.66 20.34 -13.32 19.68 -14 19 C-13.25 16.625 -13.25 16.625 -12 14 C-11.0409375 13.5978125 -11.0409375 13.5978125 -10.0625 13.1875 C-7.0477241 11.45171994 -6.84066654 9.03697396 -5.7890625 5.8359375 C-5 4 -5 4 -2.875 2.625 C-2.25625 2.41875 -1.6375 2.2125 -1 2 C-0.67 1.34 -0.34 0.68 0 0 Z " fill="#EABCF6" transform="translate(184,309)"/>
<path d="M0 0 C0.66 0.33 1.32 0.66 2 1 C0.76882123 5.07236054 -0.68319849 8.43568999 -3 12 C-3.66 13.0725 -4.32 14.145 -5 15.25 C-7 18 -7 18 -10 19 C-9.20685075 11.06850745 -5.87554785 5.2227092 0 0 Z " fill="#195F6B" transform="translate(200,219)"/>
<path d="M0 0 C1.89904955 2.74230982 2.00814442 3.93663791 1.57421875 7.3125 C1.13529297 9.1378125 1.13529297 9.1378125 0.6875 11 C0.26017578 12.8253125 0.26017578 12.8253125 -0.17578125 14.6875 C-0.58376953 16.3271875 -0.58376953 16.3271875 -1 18 C-1.19980469 18.804375 -1.39960938 19.60875 -1.60546875 20.4375 C-1.73566406 20.953125 -1.86585938 21.46875 -2 22 C-1.34 22.33 -0.68 22.66 0 23 C-0.99 25.475 -0.99 25.475 -2 28 C-3.32 27.67 -4.64 27.34 -6 27 C-4.30622972 17.92941442 -2.14412164 8.97200413 0 0 Z " fill="#E7D2EF" transform="translate(167,298)"/>
<path d="M0 0 C0.33 0 0.66 0 1 0 C1.07447293 6.11976497 1.12875469 12.23926278 1.16479492 18.359375 C1.17982843 20.43884887 1.20026074 22.51829131 1.22631836 24.59765625 C1.26294136 27.59643334 1.27978111 30.59478911 1.29296875 33.59375 C1.30845261 34.51490601 1.32393646 35.43606201 1.33988953 36.38513184 C1.34140766 42.28304581 0.38974302 46.59758211 -2 52 C-4 50 -4 50 -4.3125 47.125 C-4 44 -4 44 -2.51245117 42.37597656 C-0.18131272 38.71388788 -0.52012912 35.11730183 -0.48828125 30.859375 C-0.47033005 29.97719299 -0.45237885 29.09501099 -0.43388367 28.18609619 C-0.37979029 25.37411245 -0.34588824 22.56229835 -0.3125 19.75 C-0.27932605 17.84112223 -0.24483632 15.93226685 -0.20898438 14.0234375 C-0.12406439 9.34908075 -0.05724859 4.67477424 0 0 Z " fill="#A1A2C7" transform="translate(214,256)"/>
<path d="M0 0 C2.31 0.33 4.62 0.66 7 1 C7.28875 1.969375 7.5775 2.93875 7.875 3.9375 C8.64214682 7.10664203 8.64214682 7.10664203 11 8 C11 8.66 11 9.32 11 10 C11.66 10 12.32 10 13 10 C13 10.66 13 11.32 13 12 C13.99 12 14.98 12 16 12 C16 12.66 16 13.32 16 14 C16.66 14.33 17.32 14.66 18 15 C13.97372024 15 12.26696313 13.26687238 9 11 C7.88625 10.505 7.88625 10.505 6.75 10 C4.49545656 8.71168946 4.14246468 7.28492936 3 5 C0.9664052 3.73195434 0.9664052 3.73195434 -1 3 C-0.67 2.01 -0.34 1.02 0 0 Z " fill="#9275CB" transform="translate(272,291)"/>
<path d="M0 0 C1 2 1 2 0.328125 4.49609375 C-0.02765625 5.46675781 -0.3834375 6.43742188 -0.75 7.4375 C-1.26820313 8.88962891 -1.26820313 8.88962891 -1.796875 10.37109375 C-3 13 -3 13 -4.53515625 14.3359375 C-6.97183333 17.10400266 -7.12247481 20.65223311 -7.6875 24.1875 C-7.81705078 24.93708984 -7.94660156 25.68667969 -8.08007812 26.45898438 C-8.39740538 28.30418359 -8.70013291 30.151883 -9 32 C-9.33 32 -9.66 32 -10 32 C-11.09653528 19.84064209 -6.7924566 9.89757962 0 0 Z " fill="#98F6DF" transform="translate(325,177)"/>
<path d="M0 0 C0.33 0.99 0.66 1.98 1 3 C-0.32 3.33 -1.64 3.66 -3 4 C-3 4.99 -3 5.98 -3 7 C-2.01 7 -1.02 7 0 7 C-2.33333333 9.33333333 -4.66666667 11.66666667 -7 14 C-7.99 14 -8.98 14 -10 14 C-10.33 15.32 -10.66 16.64 -11 18 C-12 16 -12 16 -11.50390625 14.08203125 C-8.88762386 7.77472806 -5.42073004 4.09186175 0 0 Z " fill="#BAFAE9" transform="translate(336,166)"/>
<path d="M0 0 C0.66 0.66 1.32 1.32 2 2 C1.625 5.125 1.625 5.125 1 8 C0.34 8 -0.32 8 -1 8 C-1 8.66 -1 9.32 -1 10 C-4.47823115 11.15941038 -6.45895578 10.70820884 -10 10 C-9.09373216 8.7010161 -8.17450463 7.41106833 -7.25 6.125 C-6.73953125 5.40570313 -6.2290625 4.68640625 -5.703125 3.9453125 C-3.92496453 1.91429435 -2.47298393 1.02144988 0 0 Z " fill="#BE81E3" transform="translate(182,320)"/>
<path d="M0 0 C0.66 0.66 1.32 1.32 2 2 C1.690625 2.5775 1.38125 3.155 1.0625 3.75 C-0.27831718 6.58937755 -0.88858202 9.22784749 -1.3359375 12.328125 C-2.0884285 15.35579466 -3.276975 17.26717712 -5.0625 19.8125 C-5.88427734 20.99779297 -5.88427734 20.99779297 -6.72265625 22.20703125 C-7.14417969 22.79871094 -7.56570312 23.39039063 -8 24 C-8.66 23.34 -9.32 22.68 -10 22 C-9.67386719 21.32195312 -9.34773437 20.64390625 -9.01171875 19.9453125 C-6.37971761 14.33969354 -4.21881232 8.90016569 -2.67578125 2.8984375 C-2 1 -2 1 0 0 Z " fill="#A36ECD" transform="translate(190,298)"/>
<path d="M0 0 C-0.928125 0.3403125 -0.928125 0.3403125 -1.875 0.6875 C-4.61410209 2.37929835 -5.05024472 3.99244161 -6 7 C-5.34 7.66 -4.68 8.32 -4 9 C-5.98 10.32 -7.96 11.64 -10 13 C-10.66 12.67 -11.32 12.34 -12 12 C-11.34 11.01 -10.68 10.02 -10 9 C-10.66 9 -11.32 9 -12 9 C-12 6.25 -12 6.25 -11 3 C-7.38626109 0.25323433 -4.4058915 -1.4686305 0 0 Z " fill="#218681" transform="translate(181,205)"/>
<path d="M0 0 C1.670625 0.2475 1.670625 0.2475 3.375 0.5 C6.72032033 1.0455458 6.72032033 1.0455458 9 1 C8.75 2.875 8.75 2.875 8 5 C6.0625 6.125 6.0625 6.125 4 7 C3.34 7.66 2.68 8.32 2 9 C-0.31 7.02 -2.62 5.04 -5 3 C-4.34 2.34 -3.68 1.68 -3 1 C-2.34 1.33 -1.68 1.66 -1 2 C-0.67 1.34 -0.34 0.68 0 0 Z " fill="#363E76" transform="translate(293,280)"/>
<path d="M0 0 C0.33 0 0.66 0 1 0 C1 10.89 1 21.78 1 33 C0.01 32.67 -0.98 32.34 -2 32 C-1.67 30.68 -1.34 29.36 -1 28 C-1.66 28 -2.32 28 -3 28 C-2.01 24.7 -1.02 21.4 0 18 C-0.66 18 -1.32 18 -2 18 C-1.84660156 17.48953125 -1.69320313 16.9790625 -1.53515625 16.453125 C-0.83094597 13.2250662 -0.65111796 10.04581999 -0.4375 6.75 C-0.31181641 4.85507813 -0.31181641 4.85507813 -0.18359375 2.921875 C-0.12300781 1.95765625 -0.06242187 0.9934375 0 0 Z " fill="#337788" transform="translate(313,224)"/>
<path d="M0 0 C2.31 0 4.62 0 7 0 C7 0.66 7 1.32 7 2 C8.32 1.67 9.64 1.34 11 1 C11 1.99 11 2.98 11 4 C11.7425 3.938125 12.485 3.87625 13.25 3.8125 C16.47519908 4.03239994 17.69723426 4.78252188 20 7 C20 7.66 20 8.32 20 9 C20.99 9.33 21.98 9.66 23 10 C22.34 10.66 21.68 11.32 21 12 C20.34 11.67 19.68 11.34 19 11 C19 10.34 19 9.68 19 9 C18.34 9 17.68 9 17 9 C16.34 8.34 15.68 7.68 15 7 C13.33678518 6.64984951 11.66965451 6.31802943 10 6 C7.9375 5.0625 7.9375 5.0625 6 4 C5.29875 3.67 4.5975 3.34 3.875 3 C2 2 2 2 0 0 Z " fill="#30C1A5" transform="translate(200,192)"/>
<path d="M0 0 C1 3 1 3 0.109375 4.796875 C-0.33921875 5.44140625 -0.7878125 6.0859375 -1.25 6.75 C-3.67108282 10.39174017 -5.39238966 13.93866861 -7 18 C-8.65 17.01 -10.3 16.02 -12 15 C-10.93166187 12.28059385 -10.01879963 11.01473485 -7.6875 9.1875 C-4.34602825 6.46769741 -2.40133617 3.56769945 0 0 Z " fill="#3DD2AA" transform="translate(325,174)"/>
<path d="M0 0 C9.84982908 -0.54992842 17.48297137 -0.73261543 26 5 C23.45297384 6.27351308 22.5717055 5.80191925 19.875 5.0625 C19.15054688 4.86785156 18.42609375 4.67320312 17.6796875 4.47265625 C17.12539062 4.31667969 16.57109375 4.16070312 16 4 C15.67 4.66 15.34 5.32 15 6 C14.34 6 13.68 6 13 6 C12.78601563 5.35546875 12.57203125 4.7109375 12.3515625 4.046875 C11.1526477 1.72160885 11.1526477 1.72160885 8.3984375 1.390625 C6.90183594 1.32101563 6.90183594 1.32101563 5.375 1.25 C3.87066406 1.16492188 3.87066406 1.16492188 2.3359375 1.078125 C1.56507813 1.05234375 0.79421875 1.0265625 0 1 C0 0.67 0 0.34 0 0 Z " fill="#54E9C2" transform="translate(209,182)"/>
<path d="M0 0 C0.99 1.485 0.99 1.485 2 3 C2.66 3 3.32 3 4 3 C4.19139889 8.45486849 3.87720194 12.78555016 2 18 C1.34 18.66 0.68 19.32 0 20 C0 13.4 0 6.8 0 0 Z " fill="#7E6AB7" transform="translate(189,280)"/>
<path d="M0 0 C2.70283329 2.39843653 4.86509261 5.09289207 7 8 C6.01 8.495 6.01 8.495 5 9 C5 8.34 5 7.68 5 7 C4.01 6.67 3.02 6.34 2 6 C1.67 5.34 1.34 4.68 1 4 C0.01 4.66 -0.98 5.32 -2 6 C-2.66 4.68 -3.32 3.36 -4 2 C-5.65 2.33 -7.3 2.66 -9 3 C-9.33 2.34 -9.66 1.68 -10 1 C-6.21234787 -0.26255071 -3.98654536 -0.5979818 0 0 Z " fill="#125C63" transform="translate(212,217)"/>
<path d="M0 0 C-0.53115106 4.51478398 -2.36620292 7.34666857 -5 11 C-5.66 10.67 -6.32 10.34 -7 10 C-6.01 8.35 -5.02 6.7 -4 5 C-5.32 5 -6.64 5 -8 5 C-8 4.01 -8 3.02 -8 2 C-2.25 0 -2.25 0 0 0 Z " fill="#AF9DD4" transform="translate(332,297)"/>
<path d="M0 0 C-0.33 2.31 -0.66 4.62 -1 7 C-4.75 8.125 -4.75 8.125 -7 7 C-7 5.35 -7 3.7 -7 2 C-4.35261084 0.5393715 -3.10551666 0 0 0 Z " fill="#5A519B" transform="translate(335,288)"/>
<path d="M0 0 C0.99 0.33 1.98 0.66 3 1 C4.1875 4.0625 4.1875 4.0625 5 7 C2.69 7.33 0.38 7.66 -2 8 C-2 5.69 -2 3.38 -2 1 C-1.34 0.67 -0.68 0.34 0 0 Z " fill="#175567" transform="translate(218,227)"/>
<path d="M0 0 C-3.90083915 4.51034527 -7.39444212 6.16860361 -13 8 C-13.99 8.495 -13.99 8.495 -15 9 C-12.92320915 4.36715887 -11.08912717 2.54456359 -6.5 0.25 C-3 -1 -3 -1 0 0 Z " fill="#73E4C9" transform="translate(312,175)"/>
<path d="M0 0 C3.81287042 1.44626119 5.32707177 3.30194812 7 7 C6.625 9 6.625 9 6 11 C6.38567131 13.68149993 6.38567131 13.68149993 7 16 C3.98270581 14.49135291 3.63407458 12.19537486 2.375 9.125 C1.92898437 8.05507813 1.48296875 6.98515625 1.0234375 5.8828125 C0 3 0 3 0 0 Z " fill="#BAC9DF" transform="translate(233,255)"/>
<path d="M0 0 C0.66 0 1.32 0 2 0 C1.68853528 1.89600369 1.37578283 3.79179587 1.0625 5.6875 C0.88847656 6.74324219 0.71445312 7.79898438 0.53515625 8.88671875 C0.06832879 11.60249604 -0.44422616 14.30124235 -1 17 C-1.99 16.67 -2.98 16.34 -4 16 C-3.52417032 13.70763814 -3.04423615 11.41612791 -2.5625 9.125 C-2.29566406 7.84882813 -2.02882813 6.57265625 -1.75390625 5.2578125 C-1 2 -1 2 0 0 Z " fill="#30B799" transform="translate(315,191)"/>
<path d="M0 0 C2.64 0.99 5.28 1.98 8 3 C7.67 4.32 7.34 5.64 7 7 C7.33 7.99 7.66 8.98 8 10 C7.01 10.495 7.01 10.495 6 11 C2.1334716 7.777893 1.11940982 4.85077588 0 0 Z " fill="#9F8ED7" transform="translate(248,287)"/>
<path d="M0 0 C0.33 0 0.66 0 1 0 C1 8.58 1 17.16 1 26 C-0.32 26 -1.64 26 -3 26 C-2.67854004 25.44731445 -2.35708008 24.89462891 -2.02587891 24.32519531 C-0.85440218 21.66999675 -0.6868676 19.69020465 -0.5859375 16.796875 C-0.54726563 15.8171875 -0.50859375 14.8375 -0.46875 13.828125 C-0.4378125 12.81234375 -0.406875 11.7965625 -0.375 10.75 C-0.33632813 9.71875 -0.29765625 8.6875 -0.2578125 7.625 C-0.16368326 5.0835106 -0.07805021 2.54202567 0 0 Z " fill="#58909E" transform="translate(288,240)"/>
<path d="M0 0 C0.99 0 1.98 0 3 0 C3.33 0.66 3.66 1.32 4 2 C3.67 2.99 3.34 3.98 3 5 C2.77674186 7.05893621 2.59294241 9.12233653 2.4375 11.1875 C2.35371094 12.27417969 2.26992187 13.36085937 2.18359375 14.48046875 C2.12300781 15.31191406 2.06242188 16.14335937 2 17 C1.34 17 0.68 17 0 17 C-1.23104155 13.31599416 -0.90767252 10.08525024 -0.5625 6.25 C-0.46066406 5.07953125 -0.35882813 3.9090625 -0.25390625 2.703125 C-0.17011719 1.81109375 -0.08632812 0.9190625 0 0 Z " fill="#698BA0" transform="translate(213,239)"/>
<path d="M0 0 C2 1 4 2 6 3 C4.34832443 6.5786304 2.21713508 9.74820188 0 13 C-0.625 11.1875 -0.625 11.1875 -1 9 C-0.34 8.01 0.32 7.02 1 6 C0.68493373 2.85778033 0.68493373 2.85778033 0 0 Z " fill="#378E94" transform="translate(193,216)"/>
<path d="M0 0 C0 0.66 0 1.32 0 2 C-0.99 2 -1.98 2 -3 2 C-3 2.66 -3 3.32 -3 4 C-5.97 4 -8.94 4 -12 4 C-8.14101327 -0.27244959 -5.61655982 -1.8053228 0 0 Z " fill="#C89ADF" transform="translate(178,330)"/>
<path d="M0 0 C0.99 0.66 1.98 1.32 3 2 C1.52307692 6.67692308 1.52307692 6.67692308 -1.125 8.3125 C-2.053125 8.6528125 -2.053125 8.6528125 -3 9 C-4.125 4.25 -4.125 4.25 -3 2 C-2.01 2 -1.02 2 0 2 C0 1.34 0 0.68 0 0 Z " fill="#2B4C76" transform="translate(285,266)"/>
<path d="M0 0 C0.66 0 1.32 0 2 0 C3.02214896 3.25229215 3.18671298 4.58923143 1.75 7.75 C0 10 0 10 -3 11 C-2.44894091 7.0507432 -1.61064629 3.65079826 0 0 Z " fill="#1E5C6E" transform="translate(193,227)"/>
<path d="M0 0 C2.21015124 0.96694117 3.35282548 2.14359497 5 3.875 C4.38511719 4.00777344 3.77023438 4.14054688 3.13671875 4.27734375 C1.92435547 4.54224609 1.92435547 4.54224609 0.6875 4.8125 C-0.11300781 4.98652344 -0.91351563 5.16054687 -1.73828125 5.33984375 C-4.145401 5.87386159 -4.145401 5.87386159 -7 6.875 C-3.81132075 -0.23820755 -3.81132075 -0.23820755 0 0 Z " fill="#1F7475" transform="translate(206,213.125)"/>
<path d="M0 0 C4.54743076 1.2126482 6.26756746 2.27395563 9 6 C10.32 6 11.64 6 13 6 C13.33 7.32 13.66 8.64 14 10 C13.34 10 12.68 10 12 10 C11.67 10.66 11.34 11.32 11 12 C10.54109375 11.46890625 10.0821875 10.9378125 9.609375 10.390625 C6.50506283 6.81675301 3.41818688 3.28145941 0 0 Z " fill="#45A6A8" transform="translate(207,213)"/>
<path d="M0 0 C0.99 0.33 1.98 0.66 3 1 C2.40984815 6.50808397 1.43336231 11.64878069 0 17 C-0.33 17 -0.66 17 -1 17 C-1.10469338 11.24186425 -0.74016701 5.70985978 0 0 Z " fill="#D0F5EC" transform="translate(340,176)"/>
<path d="M0 0 C2.3125 1.9375 2.3125 1.9375 4 4 C3.67 4.99 3.34 5.98 3 7 C3.39397335 9.63804589 3.39397335 9.63804589 4 12 C2 11 2 11 1.2890625 9.22265625 C1.06992188 8.50980469 0.85078125 7.79695312 0.625 7.0625 C-0.50093442 3.72661404 -0.50093442 3.72661404 -3.1875 1.5 C-3.785625 1.335 -4.38375 1.17 -5 1 C-2.75 0.25 -2.75 0.25 0 0 Z " fill="#9CC7D1" transform="translate(225,233)"/>
<path d="M0 0 C2.475 0.99 2.475 0.99 5 2 C5 2.66 5 3.32 5 4 C5.5775 4.2475 6.155 4.495 6.75 4.75 C9.3002997 6.16683317 11.01785701 7.87627537 13 10 C12.67 10.66 12.34 11.32 12 12 C10.02 10.02 8.04 8.04 6 6 C5.01 6.495 5.01 6.495 4 7 C1.49962266 4.82575883 0.56371414 3.26954202 0 0 Z " fill="#ABF1E4" transform="translate(235,188)"/>
<path d="M0 0 C-0.47202486 4.24822374 -2.96655518 6.19989709 -6 9 C-5.67 7.35 -5.34 5.7 -5 4 C-4.34 4 -3.68 4 -3 4 C-3.33 3.34 -3.66 2.68 -4 2 C-5.98 2 -7.96 2 -10 2 C-6.3558226 -0.4294516 -4.28758728 -0.16179575 0 0 Z " fill="#56ECC0" transform="translate(332,167)"/>
<path d="M0 0 C0.66 0.66 1.32 1.32 2 2 C1.731875 2.515625 1.46375 3.03125 1.1875 3.5625 C-0.32349407 6.66401415 -1.65572726 9.82262806 -3 13 C-3.33 13 -3.66 13 -4 13 C-2.73303167 3.76923077 -2.73303167 3.76923077 -2 1 C-1.34 0.67 -0.68 0.34 0 0 Z " fill="#9069C5" transform="translate(190,298)"/>
<path d="M0 0 C1.0828125 0.495 1.0828125 0.495 2.1875 1 C5.01697427 2.00603529 7.02895466 2.16977402 10 2 C7.75 4.5625 7.75 4.5625 5 7 C2.6875 6.8125 2.6875 6.8125 1 6 C0.67 4.02 0.34 2.04 0 0 Z " fill="#7D60BA" transform="translate(307,296)"/>
<path d="M0 0 C0.66 0.33 1.32 0.66 2 1 C0.5625 3.4375 0.5625 3.4375 -2 6 C-4.99304558 6.73151889 -7.92553213 6.92773687 -11 7 C-11 6.34 -11 5.68 -11 5 C-7.71379848 2.80919899 -4.78119262 2.05033128 -1 1 C-0.67 0.67 -0.34 0.34 0 0 Z " fill="#77E6CD" transform="translate(193,185)"/>
<path d="M0 0 C0.99 0 1.98 0 3 0 C1.83857315 4.35535069 0.92300495 6.64619703 -3 9 C-3.33 7.68 -3.66 6.36 -4 5 C-3.01 4.67 -2.02 4.34 -1 4 C-0.26676204 1.98491642 -0.26676204 1.98491642 0 0 Z " fill="#B89EDA" transform="translate(208,308)"/>
<path d="M0 0 C0.625 1.875 0.625 1.875 1 4 C0.34 4.66 -0.32 5.32 -1 6 C-1.99 7.485 -1.99 7.485 -3 9 C-6.125 10.1875 -6.125 10.1875 -9 11 C-8.25 9.0625 -8.25 9.0625 -7 7 C-6.34 6.855625 -5.68 6.71125 -5 6.5625 C-4.01 6.2840625 -4.01 6.2840625 -3 6 C-1.76709799 3.54295238 -1.76709799 3.54295238 -1 1 C-0.67 0.67 -0.34 0.34 0 0 Z " fill="#5E6BA6" transform="translate(310,274)"/>
<path d="M0 0 C1 3 1 3 0 6 C0.66 6 1.32 6 2 6 C1.690625 6.495 1.38125 6.99 1.0625 7.5 C-0.41644382 10.97986781 -0.62402851 14.24028509 -1 18 C-1.33 18 -1.66 18 -2 18 C-2.054348 15.9377952 -2.09294961 13.87517184 -2.125 11.8125 C-2.14820313 10.66394531 -2.17140625 9.51539063 -2.1953125 8.33203125 C-2.00484152 5.08259628 -1.39360127 2.91339479 0 0 Z " fill="#79B4B4" transform="translate(169,208)"/>
<path d="M0 0 C2.31 0.33 4.62 0.66 7 1 C7.33 1.99 7.66 2.98 8 4 C4.625 4.625 4.625 4.625 1 5 C0.34 4.34 -0.32 3.68 -1 3 C-0.67 2.01 -0.34 1.02 0 0 Z " fill="#8C78C9" transform="translate(272,291)"/>
<path d="M0 0 C-2.36292656 2.52588702 -3.66462511 3.88820837 -7 5 C-7 4.34 -7 3.68 -7 3 C-8.32 2.67 -9.64 2.34 -11 2 C-7.36576791 -0.32590854 -4.22911669 -0.16265833 0 0 Z " fill="#8CEED2" transform="translate(339,164)"/>
<path d="M0 0 C1.32 0.66 2.64 1.32 4 2 C3.34 3.65 2.68 5.3 2 7 C0.68 6.67 -0.64 6.34 -2 6 C-1.125 1.125 -1.125 1.125 0 0 Z " fill="#E6C4ED" transform="translate(163,319)"/>
<path d="M0 0 C3 1 3 1 4.75 4.375 C6 8 6 8 5 11 C2.25722422 7.80009492 0.3697164 4.99500618 -1 1 C-0.67 0.67 -0.34 0.34 0 0 Z " fill="#84A2C0" transform="translate(274,260)"/>
<path d="M0 0 C2.96052484 3.36423277 3.92289822 6.69159287 5 11 C-0.88752009 6.7070166 -0.88752009 6.7070166 -1.4375 3.25 C-1 1 -1 1 0 0 Z " fill="#8DD8CF" transform="translate(254,209)"/>
<path d="M0 0 C1.2065625 0.0309375 1.2065625 0.0309375 2.4375 0.0625 C2.4375 0.7225 2.4375 1.3825 2.4375 2.0625 C3.4275 2.0625 4.4175 2.0625 5.4375 2.0625 C4.7775 3.3825 4.1175 4.7025 3.4375 6.0625 C2.4475 6.0625 1.4575 6.0625 0.4375 6.0625 C0.1075 5.0725 -0.2225 4.0825 -0.5625 3.0625 C-1.5525 2.4025 -2.5425 1.7425 -3.5625 1.0625 C-2.5625 0.0625 -2.5625 0.0625 0 0 Z " fill="#B17ADC" transform="translate(303.5625,308.9375)"/>
<path d="M0 0 C0.66 0.33 1.32 0.66 2 1 C2.625 3.0625 2.625 3.0625 3 5 C1.68 5.33 0.36 5.66 -1 6 C-1.33 8.31 -1.66 10.62 -2 13 C-3.18771723 9.57056481 -2.80226223 7.62215325 -1.5625 4.25 C-1.27503906 3.45078125 -0.98757813 2.6515625 -0.69140625 1.828125 C-0.46324219 1.22484375 -0.23507812 0.6215625 0 0 Z " fill="#83D8C9" transform="translate(291,192)"/>
<path d="M0 0 C1 3 1 3 -0.4375 6.1875 C-1.2109375 7.5796875 -1.2109375 7.5796875 -2 9 C-3.32 8.67 -4.64 8.34 -6 8 C-5.75 6.125 -5.75 6.125 -5 4 C-3 2.875 -3 2.875 -1 2 C-0.67 1.34 -0.34 0.68 0 0 Z " fill="#D7A8F2" transform="translate(184,309)"/>
<path d="M0 0 C0.99 0.33 1.98 0.66 3 1 C1.92598892 3.91517292 1.22189824 5.77810176 -1 8 C-1 7.01 -1 6.02 -1 5 C-1.66 4.67 -2.32 4.34 -3 4 C-2.01 2.68 -1.02 1.36 0 0 Z " fill="#334D7D" transform="translate(309,269)"/>
<path d="M0 0 C2.0625 0.4375 2.0625 0.4375 4 1 C3.67 2.98 3.34 4.96 3 7 C2.34 7 1.68 7 1 7 C0.34 5.02 -0.32 3.04 -1 1 C-0.67 0.67 -0.34 0.34 0 0 Z " fill="#5EB5B8" transform="translate(258,227)"/>
<path d="M0 0 C0.66 0.66 1.32 1.32 2 2 C1.6875 5.25 1.6875 5.25 1 9 C0.814375 10.134375 0.62875 11.26875 0.4375 12.4375 C0.293125 13.283125 0.14875 14.12875 0 15 C-0.33 15 -0.66 15 -1 15 C-1.02715383 13.25008666 -1.04646551 11.50005055 -1.0625 9.75 C-1.07410156 8.77546875 -1.08570313 7.8009375 -1.09765625 6.796875 C-1.01195577 4.34241322 -0.70706066 2.33831086 0 0 Z " fill="#7BE8D2" transform="translate(316,194)"/>
<path d="M0 0 C2.79711806 0.65999415 5.48522531 1.45900279 8.1875 2.4375 C9.22970703 2.80681641 9.22970703 2.80681641 10.29296875 3.18359375 C12 4 12 4 13 6 C11.54096742 5.69078116 10.08279278 5.37751201 8.625 5.0625 C7.81289062 4.88847656 7.00078125 4.71445313 6.1640625 4.53515625 C4 4 4 4 2 3 C2 2.34 2 1.68 2 1 C1.34 0.67 0.68 0.34 0 0 Z " fill="#9FF1E0" transform="translate(222,182)"/>
<path d="M0 0 C3.32851213 2.98418329 5.3205729 5.84562769 7 10 C6.67 10.99 6.34 11.98 6 13 C4.99193149 11.40089132 3.99379615 9.79551738 3 8.1875 C2.443125 7.29417969 1.88625 6.40085937 1.3125 5.48046875 C0 3 0 3 0 0 Z " fill="#8087C4" transform="translate(260,272)"/>
<path d="M0 0 C0.99 0.495 0.99 0.495 2 1 C2 1.66 2 2.32 2 3 C2.66 3 3.32 3 4 3 C4.66 4.98 5.32 6.96 6 9 C2.83884224 7.63016497 2.0072908 7.0109362 0 4 C0 2.68 0 1.36 0 0 Z " fill="#92E0D4" transform="translate(248,200)"/>
<path d="M0 0 C0.99 0.33 1.98 0.66 3 1 C2.67 2.32 2.34 3.64 2 5 C0.35 5.33 -1.3 5.66 -3 6 C-2.42655063 3.13275314 -2.1385485 2.1385485 0 0 Z " fill="#35B49C" transform="translate(181,193)"/>
<path d="M0 0 C1 3 1 3 0.00390625 5.04296875 C-0.47175781 5.75066406 -0.94742187 6.45835937 -1.4375 7.1875 C-1.91058594 7.90292969 -2.38367188 8.61835938 -2.87109375 9.35546875 C-3.24363281 9.89816406 -3.61617188 10.44085938 -4 11 C-4.99 10.34 -5.98 9.68 -7 9 C-4.69 6.03 -2.38 3.06 0 0 Z " fill="#46D7AE" transform="translate(325,174)"/>
<path d="M0 0 C0.66 0 1.32 0 2 0 C0.75023244 3.65316671 0.32901247 4.78065836 -3 7 C-3.66 5.35 -4.32 3.7 -5 2 C-3.68 2 -2.36 2 -1 2 C-0.67 1.34 -0.34 0.68 0 0 Z " fill="#906EC3" transform="translate(326,302)"/>
<path d="M0 0 C0.66 0 1.32 0 2 0 C2 3 2 3 0.46875 4.60546875 C-0.1809375 5.12753906 -0.830625 5.64960938 -1.5 6.1875 C-2.1496875 6.71730469 -2.799375 7.24710937 -3.46875 7.79296875 C-3.9740625 8.19128906 -4.479375 8.58960938 -5 9 C-5.66 8.67 -6.32 8.34 -7 8 C-5.88200014 6.66079162 -4.75538103 5.32877444 -3.625 4 C-2.68527344 2.88625 -2.68527344 2.88625 -1.7265625 1.75 C-1.15679687 1.1725 -0.58703125 0.595 0 0 Z " fill="#B87FD7" transform="translate(179,321)"/>
<path d="M0 0 C1.44977894 2.34112451 2.04314411 3.5796929 1.7578125 6.359375 C1.54898438 7.14828125 1.34015625 7.9371875 1.125 8.75 C0.92132813 9.54921875 0.71765625 10.3484375 0.5078125 11.171875 C0.34023437 11.77515625 0.17265625 12.3784375 0 13 C-0.33 13 -0.66 13 -1 13 C-1.02708567 11.39592672 -1.04643483 9.7917215 -1.0625 8.1875 C-1.07410156 7.29417969 -1.08570313 6.40085937 -1.09765625 5.48046875 C-1 3 -1 3 0 0 Z " fill="#C6B1DB" transform="translate(167,298)"/>
<path d="M0 0 C0.66 0.33 1.32 0.66 2 1 C2.125 3.875 2.125 3.875 2 7 C1.34 7.66 0.68 8.32 0 9 C-1.36623674 6.26752652 -1.128426 4.01801098 -1 1 C-0.67 0.67 -0.34 0.34 0 0 Z " fill="#A58ED1" transform="translate(211,299)"/>
<path d="M0 0 C2 2 2 2 2 5 C0.125 5.625 0.125 5.625 -2 6 C-2.66 5.34 -3.32 4.68 -4 4 C-2.68 2.68 -1.36 1.36 0 0 Z " fill="#6D61AE" transform="translate(302,290)"/>
<path d="M0 0 C3.465 1.485 3.465 1.485 7 3 C6.67 3.66 6.34 4.32 6 5 C3.625 4.6875 3.625 4.6875 1 4 C0.34 3.01 -0.32 2.02 -1 1 C-0.67 0.67 -0.34 0.34 0 0 Z " fill="#303870" transform="translate(289,281)"/>
<path d="M0 0 C-0.66 1.32 -1.32 2.64 -2 4 C-2.33 3.34 -2.66 2.68 -3 2 C-4.65 2.33 -6.3 2.66 -8 3 C-8.33 2.34 -8.66 1.68 -9 1 C-5.8035914 -0.06546953 -3.34252724 -0.07427838 0 0 Z " fill="#0C4E56" transform="translate(211,217)"/>
<path d="M0 0 C3.3 0.66 6.6 1.32 10 2 C10 2.99 10 3.98 10 5 C6.37 4.01 2.74 3.02 -1 2 C-0.67 1.34 -0.34 0.68 0 0 Z " fill="#36B0A1" transform="translate(190,203)"/>
<path d="M0 0 C1.98 0.66 3.96 1.32 6 2 C5.67 2.99 5.34 3.98 5 5 C3.35 4.67 1.7 4.34 0 4 C0 2.68 0 1.36 0 0 Z " fill="#B781E6" transform="translate(290,306)"/>
<path d="M0 0 C2.475 0.495 2.475 0.495 5 1 C5 1.66 5 2.32 5 3 C5.99 3 6.98 3 8 3 C8 3.66 8 4.32 8 5 C8.66 5.33 9.32 5.66 10 6 C5.96776894 6 4.19119553 4.35870974 1 2 C0.67 1.34 0.34 0.68 0 0 Z " fill="#A279D6" transform="translate(280,300)"/>
<path d="M0 0 C0.66 0 1.32 0 2 0 C2.36923077 7.50769231 2.36923077 7.50769231 0.5 10 C0.005 10.33 -0.49 10.66 -1 11 C-1.14285714 3.57142857 -1.14285714 3.57142857 0 0 Z " fill="#7364B2" transform="translate(191,283)"/>
<path d="M0 0 C3.36591866 1.44253657 5.51047079 3.33264727 8 6 C7.67 6.66 7.34 7.32 7 8 C1.21538462 4.55384615 1.21538462 4.55384615 0.125 1.75 C0.08375 1.1725 0.0425 0.595 0 0 Z " fill="#3ABAA8" transform="translate(223,203)"/>
<path d="M0 0 C1.875 0.5625 1.875 0.5625 4 2 C5.25 5.625 5.25 5.625 6 9 C2.91910327 6.22719294 1.31224548 3.93673644 0 0 Z " fill="#D4C8EA" transform="translate(250,294)"/>
<path d="M0 0 C0.33 0 0.66 0 1 0 C1 3.3 1 6.6 1 10 C0.01 10 -0.98 10 -2 10 C-1.54177532 6.53058454 -1.10868317 3.32604951 0 0 Z " fill="#2CA592" transform="translate(313,208)"/>
<path d="M0 0 C0.66 0.33 1.32 0.66 2 1 C1.6875 2.9375 1.6875 2.9375 1 5 C0.01 5.33 -0.98 5.66 -2 6 C-2 4.35 -2 2.7 -2 1 C-1.34 0.67 -0.68 0.34 0 0 Z " fill="#E1B5F3" transform="translate(179,316)"/>
<path d="M0 0 C2.6875 -0.3125 2.6875 -0.3125 5 0 C2.47211993 2.79872437 0.79588866 4.45773019 -3 5 C-1.8125 2.5 -1.8125 2.5 0 0 Z " fill="#D7C3E9" transform="translate(316,312)"/>
<path d="M0 0 C2 1.3125 2 1.3125 4 3 C4 3.99 4 4.98 4 6 C2.68 6.33 1.36 6.66 0 7 C0 4.69 0 2.38 0 0 Z " fill="#A57ED2" transform="translate(201,312)"/>
<path d="M0 0 C0.28875 0.61875 0.5775 1.2375 0.875 1.875 C1.93720042 4.13325765 1.93720042 4.13325765 4 6 C4.125 8.625 4.125 8.625 4 11 C3.67 9.68 3.34 8.36 3 7 C2.01 7 1.02 7 0 7 C-0.38133299 5.0085944 -0.71325582 3.00720923 -1 1 C-0.67 0.67 -0.34 0.34 0 0 Z " fill="#96A0C9" transform="translate(240,267)"/>
<path d="M0 0 C0.66 0.33 1.32 0.66 2 1 C1.01 2.98 0.02 4.96 -1 7 C-1.99 7 -2.98 7 -4 7 C-2.79618552 4.50638429 -1.54571278 2.31856917 0 0 Z " fill="#8FD9CE" transform="translate(178,194)"/>
<path d="M0 0 C2.475 0.495 2.475 0.495 5 1 C5.33 2.32 5.66 3.64 6 5 C4.68 5 3.36 5 2 5 C1.34 3.35 0.68 1.7 0 0 Z " fill="#4BE3BE" transform="translate(230,187)"/>
<path d="M0 0 C0.33 0 0.66 0 1 0 C1 1.98 1 3.96 1 6 C-0.32 6 -1.64 6 -3 6 C-2 4 -1 2 0 0 Z " fill="#587E98" transform="translate(288,260)"/>
<path d="M0 0 C2.5 1.375 2.5 1.375 5 3 C5 3.66 5 4.32 5 5 C3.35 5.33 1.7 5.66 0 6 C0 4.02 0 2.04 0 0 Z " fill="#1E4D5E" transform="translate(218,229)"/>
<path d="M0 0 C0.66 0.33 1.32 0.66 2 1 C0.515 4.465 0.515 4.465 -1 8 C-1.66 7.34 -2.32 6.68 -3 6 C-2.63318342 3.06546739 -2.13562754 2.13562754 0 0 Z " fill="#10535D" transform="translate(200,219)"/>
<path d="M0 0 C0.66 0.66 1.32 1.32 2 2 C1.34 2.66 0.68 3.32 0 4 C-0.70710678 5.64991582 -1.37943989 7.31562256 -2 9 C-3.10102197 5.69693408 -2.95067299 4.28414305 -2 1 C-1.34 0.67 -0.68 0.34 0 0 Z " fill="#36BAA0" transform="translate(292,197)"/>
</svg>
